<svg preserveAspectRatio="none" width="100%" height="100%" overflow="visible" style="display: block;" viewBox="0 0 16 16" fill="none" xmlns="http://www.w3.org/2000/svg">
<g id="sms">
<mask id="mask0_0_148" style="mask-type:alpha" maskUnits="userSpaceOnUse" x="0" y="0" width="16" height="16">
<rect id="Bounding box" width="16" height="16" fill="var(--fill-0, #D9D9D9)"/>
</mask>
<g mask="url(#mask0_0_148)">
<path id="sms_2" d="M1.33333 14.6667V2.66667C1.33333 2.3 1.46389 1.98611 1.725 1.725C1.98611 1.46389 2.3 1.33333 2.66667 1.33333H13.3333C13.7 1.33333 14.0139 1.46389 14.275 1.725C14.5361 1.98611 14.6667 2.3 14.6667 2.66667V10.6667C14.6667 11.0333 14.5361 11.3472 14.275 11.6083C14.0139 11.8694 13.7 12 13.3333 12H4L1.33333 14.6667ZM5.80833 7.14167C5.93611 7.01389 6 6.85556 6 6.66667C6 6.47778 5.93611 6.31944 5.80833 6.19167C5.68056 6.06389 5.52222 6 5.33333 6C5.14444 6 4.98611 6.06389 4.85833 6.19167C4.73056 6.31944 4.66667 6.47778 4.66667 6.66667C4.66667 6.85556 4.73056 7.01389 4.85833 7.14167C4.98611 7.26944 5.14444 7.33333 5.33333 7.33333C5.52222 7.33333 5.68056 7.26944 5.80833 7.14167ZM8.475 7.14167C8.60278 7.01389 8.66667 6.85556 8.66667 6.66667C8.66667 6.47778 8.60278 6.31944 8.475 6.19167C8.34722 6.06389 8.18889 6 8 6C7.81111 6 7.65278 6.06389 7.525 6.19167C7.39722 6.31944 7.33333 6.47778 7.33333 6.66667C7.33333 6.85556 7.39722 7.01389 7.525 7.14167C7.65278 7.26944 7.81111 7.33333 8 7.33333C8.18889 7.33333 8.34722 7.26944 8.475 7.14167ZM11.1417 7.14167C11.2694 7.01389 11.3333 6.85556 11.3333 6.66667C11.3333 6.47778 11.2694 6.31944 11.1417 6.19167C11.0139 6.06389 10.8556 6 10.6667 6C10.4778 6 10.3194 6.06389 10.1917 6.19167C10.0639 6.31944 10 6.47778 10 6.66667C10 6.85556 10.0639 7.01389 10.1917 7.14167C10.3194 7.26944 10.4778 7.33333 10.6667 7.33333C10.8556 7.33333 11.0139 7.26944 11.1417 7.14167Z" fill="var(--fill-0, #818E99)"/>
</g>
</g>
</svg>
