<svg preserveAspectRatio="none" width="100%" height="100%" overflow="visible" style="display: block;" viewBox="0 0 16 16" fill="none" xmlns="http://www.w3.org/2000/svg">
<g id="comic_bubble">
<mask id="mask0_0_171" style="mask-type:alpha" maskUnits="userSpaceOnUse" x="0" y="0" width="16" height="16">
<rect id="Bounding box" width="16" height="16" fill="var(--fill-0, #D9D9D9)"/>
</mask>
<g mask="url(#mask0_0_171)">
<path id="comic_bubble_2" d="M7.33333 13.9333L5.4 12H2.66667V9.26667L0.733333 7.33333L2.66667 5.4V2.66667H5.4L7.33333 0.733333L9.26667 2.66667H12V5.4L13.9333 7.33333L12 9.26667L13.9167 13.0333C13.9944 13.1778 14.0167 13.3194 13.9833 13.4583C13.95 13.5972 13.8889 13.7111 13.8 13.8C13.7111 13.8889 13.5972 13.95 13.4583 13.9833C13.3194 14.0167 13.1778 13.9944 13.0333 13.9167L9.26667 12L7.33333 13.9333Z" fill="var(--fill-0, #1FC7FF)"/>
</g>
</g>
</svg>
