<svg preserveAspectRatio="none" width="100%" height="100%" overflow="visible" style="display: block;" viewBox="0 0 14 14" fill="none" xmlns="http://www.w3.org/2000/svg">
<g id="timer">
<path id="Vector" d="M9 1H5.5V2.16667H9V1ZM6.66667 8.58333H7.83333V5.08333H6.66667V8.58333ZM11.3508 4.7275L12.1792 3.89917C11.9283 3.60167 11.6542 3.32167 11.3567 3.07667L10.5283 3.905C9.62417 3.18167 8.48667 2.75 7.25 2.75C4.35083 2.75 2 5.10083 2 8C2 10.8992 4.345 13.25 7.25 13.25C10.155 13.25 12.5 10.8992 12.5 8C12.5 6.76333 12.0683 5.62583 11.3508 4.7275ZM7.25 12.0833C4.9925 12.0833 3.16667 10.2575 3.16667 8C3.16667 5.7425 4.9925 3.91667 7.25 3.91667C9.5075 3.91667 11.3333 5.7425 11.3333 8C11.3333 10.2575 9.5075 12.0833 7.25 12.0833Z" fill="var(--fill-0, #818E99)"/>
</g>
</svg>
